# xmcd
#
# Track frame offsets:
#   150
#   10308
#   21764
#   40869
#   51474
#   66680
#   85582
#   99210
#   110835
#
# Disc length: 1623 seconds
#
# Revision: 0
# Processed by: cddbd v1.5.2PL0 Copyright (c) Steve Scherf et al.
# Submitted via: Click'N Design 3D 5.1
#
DISCID=74065509
DTITLE=Part 2 - Old Country
DYEAR=1970
DGENRE=Country
TTITLE0=I've Got A Tiger By The Tail
TTITLE1=A Little Bit Country and R N R
TTITLE2=Candle In The Wind
TTITLE3=The Wings Of A Dove
TTITLE4=All My Ex's Live In Texas
TTITLE5=Two Sparrows In A Hurricain
TTITLE6=You've Never Been This Far Before
TTITLE7=On The Road Again
TTITLE8=Bud the spud
EXTD=
EXTT0=
EXTT1=
EXTT2=
EXTT3=
EXTT4=
EXTT5=
EXTT6=
EXTT7=
EXTT8=
PLAYORDER=
